<svg xmlns="http://www.w3.org/2000/svg" width="241" height="189" fill="none" viewBox="0 0 241 189">
    <g opacity=".3">
        <path stroke="#FDF9F4" stroke-linecap="round" stroke-linejoin="round" stroke-miterlimit="10" stroke-width="3.207" d="M2 2c10.692 0 10.692 12.099 21.525 12.099C34.217 14.099 34.217 2 45.049 2c10.692 0 10.692 12.099 21.525 12.099C77.266 14.099 77.266 2 88.1 2 98.79 2 98.79 14.099 109.624 14.099 120.316 14.099 120.316 2 131.148 2c10.692 0 10.692 12.099 21.525 12.099C163.365 14.099 163.365 2 174.198 2c10.692 0 10.692 12.099 21.524 12.099C206.414 14.099 206.414 2 217.247 2c10.692 0 10.692 12.099 21.525 12.099M2 36.608c10.692 0 10.692 12.099 21.525 12.099 10.692 0 10.692-12.1 21.524-12.1 10.692 0 10.692 12.1 21.525 12.1 10.692 0 10.692-12.1 21.525-12.1 10.692 0 10.692 12.1 21.525 12.1 10.692 0 10.692-12.1 21.524-12.1 10.692 0 10.692 12.1 21.525 12.1 10.692 0 10.692-12.1 21.525-12.1 10.692 0 10.692 12.1 21.524 12.1 10.692 0 10.692-12.1 21.525-12.1 10.692 0 10.692 12.1 21.525 12.1M2 71.217c10.692 0 10.692 12.099 21.525 12.099 10.692 0 10.692-12.099 21.524-12.099 10.692 0 10.692 12.099 21.525 12.099 10.692 0 10.692-12.099 21.525-12.099 10.692 0 10.692 12.099 21.525 12.099 10.692 0 10.692-12.099 21.524-12.099 10.692 0 10.692 12.099 21.525 12.099 10.692 0 10.692-12.099 21.525-12.099 10.692 0 10.692 12.099 21.524 12.099 10.692 0 10.692-12.099 21.525-12.099 10.692 0 10.692 12.099 21.525 12.099M2 105.685c10.692 0 10.692 12.098 21.525 12.098 10.692 0 10.692-12.098 21.524-12.098 10.692 0 10.692 12.098 21.525 12.098 10.692 0 10.692-12.098 21.525-12.098 10.692 0 10.692 12.098 21.525 12.098 10.692 0 10.692-12.098 21.524-12.098 10.692 0 10.692 12.098 21.525 12.098 10.692 0 10.692-12.098 21.525-12.098 10.692 0 10.692 12.098 21.524 12.098 10.692 0 10.692-12.098 21.525-12.098 10.692 0 10.692 12.098 21.525 12.098M2 140.292c10.692 0 10.692 12.099 21.525 12.099 10.692 0 10.692-12.099 21.524-12.099 10.692 0 10.692 12.099 21.525 12.099 10.692 0 10.692-12.099 21.525-12.099 10.692 0 10.692 12.099 21.525 12.099 10.692 0 10.692-12.099 21.524-12.099 10.692 0 10.692 12.099 21.525 12.099 10.692 0 10.692-12.099 21.525-12.099 10.692 0 10.692 12.099 21.524 12.099 10.692 0 10.692-12.099 21.525-12.099 10.692 0 10.692 12.099 21.525 12.099M2 174.902c10.692 0 10.692 12.098 21.525 12.098 10.692 0 10.692-12.098 21.524-12.098 10.692 0 10.692 12.098 21.525 12.098 10.692 0 10.692-12.098 21.525-12.098C98.79 174.902 98.79 187 109.624 187c10.692 0 10.692-12.098 21.524-12.098 10.692 0 10.692 12.098 21.525 12.098 10.692 0 10.692-12.098 21.525-12.098 10.692 0 10.692 12.098 21.524 12.098 10.692 0 10.692-12.098 21.525-12.098 10.692 0 10.692 12.098 21.525 12.098"/>
    </g>
</svg>
