<svg xmlns="http://www.w3.org/2000/svg" width="224" height="70" fill="none" viewBox="0 0 224 70">
    <rect width="224" height="70" fill="#120030" rx="35"/>
    <path fill="#9555FF" fill-rule="evenodd" d="M52.5 16.368h6.03v32.965H52.5V16.368zm-2.8 10.405h-5.617v-1.841c0-1.013.26-1.796.782-2.348.522-.584 1.228-.875 2.118-.875h.04c.311.002.588.02.832.054.152.022.291.05.417.084.369.092.706.215 1.013.368l1.704-5.386c-.422-.178-.884-.331-1.386-.46-.101-.027-.204-.052-.31-.076-.093-.022-.188-.043-.284-.063-.618-.129-1.28-.203-1.985-.224-.135-.004-.271-.006-.409-.006-.385 0-.76.019-1.125.056-.828.085-1.604.266-2.328.543-1.044.368-1.95.92-2.716 1.657-.768.706-1.366 1.596-1.796 2.67-.399 1.044-.599 2.256-.599 3.637v2.21H34v5.157h4.051v17.403h6.032V31.93H49.7v-5.157zm38.07 22.518h5.695l3.723-12.783 3.723 12.783h5.695l6.571-22.559h-5.695l-3.723 12.784-3.724-12.784h-5.694l-3.724 12.784-3.723-12.784h-5.695l6.571 22.56zm-12-21.62c-1.39-.604-2.924-.939-4.536-.939-2.744 0-5.262.97-7.228 2.587-2.54 2.089-4.161 5.256-4.161 8.802 0 3.546 1.62 6.714 4.161 8.802 1.966 1.617 4.484 2.587 7.228 2.587 3.927 0 7.39-1.987 9.437-5.01 1.232-1.82 1.952-4.016 1.952-6.379 0-4.35-2.44-8.13-6.025-10.049-.27-.144-.546-.278-.828-.4zm-4.536 16.364c3.266 0 5.913-2.648 5.913-5.914 0-3.266-2.647-5.913-5.913-5.913-3.266 0-5.914 2.647-5.914 5.913 0 3.266 2.648 5.914 5.914 5.914z" clip-rule="evenodd"/>
    <path fill="#fff" fill-rule="evenodd" d="M172.038 16.259h-5.665v21.954l-.002.194c0 6.4 5.189 11.59 11.589 11.59 6.401 0 11.589-5.19 11.589-11.59 0-6.4-5.188-11.589-11.589-11.589-2.163 0-4.189.593-5.922 1.625V16.26zm-.001 22.148h.001v-.138c.074-3.208 2.697-5.785 5.922-5.785 3.271 0 5.923 2.652 5.923 5.923 0 3.272-2.652 5.924-5.923 5.924s-5.923-2.652-5.923-5.924zM142.228 16.37h-6.032v32.964h6.032V16.37zm-11.212 31.57c1.723-1.188 3.059-2.703 4.01-4.544l-5.346-2.317c-.505 1.04-1.188 1.842-2.05 2.406-.831.535-1.856.802-3.074.802-.772 0-1.5-.149-2.183-.446-.683-.297-1.292-.712-1.826-1.247-.505-.535-.906-1.188-1.203-1.96-.297-.773-.446-1.634-.446-2.584 0-.95.149-1.812.446-2.584.297-.772.698-1.426 1.203-1.96.534-.535 1.143-.95 1.826-1.248.683-.297 1.411-.445 2.183-.445 1.188 0 2.168.267 2.941.802.801.505 1.455 1.262 1.96 2.272l5.346-2.228c-.802-1.841-2.064-3.341-3.787-4.5-1.723-1.158-3.846-1.737-6.371-1.737-1.693 0-3.252.297-4.677.891-1.396.565-2.614 1.367-3.653 2.406-1.01 1.01-1.812 2.227-2.406 3.653-.564 1.426-.847 2.985-.847 4.678s.283 3.252.847 4.678c.594 1.395 1.396 2.613 2.406 3.653 1.039 1.04 2.257 1.856 3.653 2.45 1.425.564 2.984.846 4.677.846 2.555 0 4.678-.579 6.371-1.737zm19.087-21.122h-5.923v12.62h.001v.126c0 5.618 4.554 10.173 10.172 10.173s10.173-4.555 10.173-10.173l-.001-.129V26.818h-5.923v12.617h-.002c.002.043.002.086.002.13 0 2.346-1.902 4.249-4.249 4.249-2.347 0-4.249-1.903-4.249-4.25 0-.043 0-.086.002-.129h-.003V26.818z" clip-rule="evenodd"/>
</svg>
