<svg xmlns="http://www.w3.org/2000/svg" width="174" height="32" fill="none" viewBox="0 0 174 32">
    <path fill="#9555FF" fill-rule="evenodd" d="M50.856.682h5.39v29.463h-5.39V.682zm-2.502 9.3h-5.02V8.336c0-.905.233-1.605.7-2.099.466-.52 1.097-.781 1.892-.781h.036c.278 0 .525.017.743.048.136.02.26.044.373.075.33.082.631.192.906.33l1.522-4.815c-.377-.159-.79-.296-1.238-.412-.09-.023-.183-.046-.277-.067-.083-.02-.168-.038-.254-.056-.553-.115-1.144-.182-1.775-.2-.12-.004-.242-.006-.365-.006-.344 0-.679.017-1.005.05-.74.076-1.434.237-2.081.485-.933.33-1.742.823-2.428 1.481-.686.631-1.22 1.427-1.605 2.387-.356.933-.535 2.016-.535 3.25v1.976h-3.62v4.609h3.62v15.554h5.39V14.591h5.021V9.98zM82.38 30.108h5.09l3.328-11.426 3.328 11.426h5.09l5.872-20.163h-5.09L96.67 21.371 93.342 9.945h-5.09l-3.327 11.426-3.328-11.426h-5.09l5.873 20.163zM71.655 10.784c-1.243-.54-2.613-.839-4.054-.839-2.453 0-4.703.867-6.46 2.312-2.271 1.867-3.72 4.698-3.72 7.867 0 3.17 1.449 6 3.72 7.867 1.757 1.445 4.007 2.313 6.46 2.313 3.51 0 6.604-1.777 8.434-4.48 1.102-1.626 1.745-3.588 1.745-5.7 0-3.888-2.18-7.267-5.385-8.981-.24-.13-.488-.249-.74-.359zM67.6 25.41c2.919 0 5.285-2.367 5.285-5.286 0-2.919-2.366-5.285-5.285-5.285-2.92 0-5.286 2.366-5.286 5.285 0 2.92 2.367 5.286 5.286 5.286z" clip-rule="evenodd"/>
    <path fill="#fff" fill-rule="evenodd" d="M157.696.583h-5.064V20.378c0 5.72 4.637 10.358 10.358 10.358 5.72 0 10.358-4.637 10.358-10.358 0-5.72-4.638-10.357-10.358-10.357-1.934 0-3.745.53-5.294 1.453V.584zm0 19.795v-.036c.02-2.907 2.382-5.257 5.294-5.257 2.924 0 5.294 2.37 5.294 5.293 0 2.924-2.37 5.294-5.294 5.294-2.924 0-5.294-2.37-5.294-5.294z" clip-rule="evenodd"/>
    <path fill="#fff" d="M131.053.683h-5.39v29.462h5.39V.683zM121.033 28.9c1.539-1.062 2.734-2.416 3.583-4.062l-4.778-2.07c-.451.929-1.062 1.646-1.832 2.15-.743.478-1.659.717-2.747.717-.69 0-1.341-.133-1.951-.399-.611-.265-1.155-.637-1.633-1.114-.451-.478-.809-1.062-1.075-1.752-.265-.69-.398-1.46-.398-2.31 0-.85.133-1.619.398-2.31.266-.69.624-1.273 1.075-1.751.478-.478 1.022-.85 1.633-1.115.61-.266 1.261-.398 1.951-.398 1.062 0 1.938.239 2.628.716.717.452 1.301 1.129 1.752 2.031l4.778-1.99c-.717-1.646-1.845-2.987-3.384-4.022-1.54-1.036-3.438-1.553-5.694-1.553-1.513 0-2.907.265-4.181.796-1.248.505-2.336 1.221-3.265 2.15-.903.903-1.619 1.991-2.15 3.265-.505 1.275-.757 2.668-.757 4.181s.252 2.907.757 4.181c.531 1.248 1.247 2.336 2.15 3.265.929.93 2.017 1.66 3.265 2.19 1.274.504 2.668.757 4.181.757 2.282 0 4.18-.518 5.694-1.553zM138.092 10.02h-5.294V21.3h5.294V10.02zM150.982 10.02h-5.294V21.3h5.294V10.02z"/>
    <path fill="#fff" d="M132.799 21.37v.045c0 5.02 4.07 9.091 9.092 9.091 5.021 0 9.092-4.07 9.092-9.091l-.001-.116h-5.295l.002.116c0 2.097-1.701 3.797-3.798 3.797-2.098 0-3.798-1.7-3.798-3.797l.001-.116h-5.295v.07z"/>
    <path fill="#9555FF" d="M29.086 8.74c1.213-1.929 1.847-4.244 1.676-6.688-.035-.492-.101-.975-.197-1.447-1.794 1.038-3.834 1.714-6.027 1.92l-10.565.734c-2.358.164-4.495 1.044-6.211 2.41-2.774 2.21-4.449 5.694-4.183 9.49.036.506.105 1.003.205 1.488 1.892-1.094 4.058-1.785 6.388-1.947l10.169-.707c3.734-.259 6.912-2.312 8.745-5.253zM10.422 18.26C4.25 18.687-.403 24.015.028 30.157c.035.508.104 1.005.205 1.489 1.892-1.094 4.058-1.784 6.388-1.946l10.168-.707c1.633-.114 3.16-.57 4.513-1.293.536-.287 1.044-.614 1.522-.98l.047-.036.033-.025c.283-.22.555-.454.815-.7 2.34-2.213 3.707-5.41 3.464-8.865-.035-.508-.104-1.004-.205-1.489-1.892 1.094-4.058 1.785-6.388 1.947l-10.168.706z"/>
</svg>
