<svg width="1919" height="1066" viewBox="0 0 1919 1066" fill="none" xmlns="http://www.w3.org/2000/svg">
<mask id="mask0" mask-type="alpha" maskUnits="userSpaceOnUse" x="0" y="0" width="1919" height="1066">
<rect width="1919" height="1066" fill="#1A0739"/>
</mask>
<g mask="url(#mask0)">
<g filter="url(#filter0_d)">
<path d="M611.862 -955.308H1305.09C1339 -955.308 1371.53 -941.934 1395.51 -918.127C1419.49 -894.32 1432.97 -862.032 1432.97 -828.364V833.056C1432.97 849.727 1429.66 866.234 1423.23 881.635C1416.81 897.037 1407.39 911.031 1395.51 922.819C1383.64 934.607 1369.54 943.958 1354.03 950.337C1338.51 956.717 1321.88 960 1305.09 960H611.862C595.069 960 578.441 956.717 562.926 950.337C547.411 943.958 533.314 934.607 521.44 922.819C509.565 911.031 500.146 897.037 493.72 881.635C487.293 866.234 483.986 849.727 483.986 833.056V-828.364C483.986 -862.032 497.458 -894.32 521.44 -918.127C545.421 -941.934 577.947 -955.308 611.862 -955.308Z" fill="url(#paint0_linear)"/>
</g>
<path d="M607.368 -937.488H1309.57C1337.54 -937.488 1364.36 -926.46 1384.13 -906.83C1403.9 -887.2 1415.01 -860.575 1415.01 -832.814V837.515C1415.01 865.276 1403.9 891.9 1384.13 911.531C1364.36 931.161 1337.54 942.189 1309.57 942.189H607.368C579.403 942.189 552.584 931.161 532.809 911.531C513.035 891.9 501.926 865.276 501.926 837.515V-832.814C501.926 -860.575 513.035 -887.2 532.809 -906.83C552.584 -926.46 579.403 -937.488 607.368 -937.488Z" fill="url(#paint1_linear)"/>
<path d="M606.123 -933.04H1310.83C1337.21 -933.108 1362.53 -922.773 1381.22 -904.308C1399.92 -885.843 1410.46 -860.761 1410.53 -834.579V839.26C1410.46 865.441 1399.92 890.523 1381.22 908.988C1362.53 927.453 1337.21 937.788 1310.83 937.72H606.123C593.064 937.754 580.126 935.234 568.048 930.305C555.97 925.375 544.989 918.131 535.73 908.989C526.472 899.846 519.119 888.982 514.09 877.018C509.061 865.054 506.455 852.223 506.421 839.26V-834.579C506.455 -847.543 509.061 -860.373 514.09 -872.338C519.119 -884.302 526.472 -895.165 535.73 -904.308C544.989 -913.451 555.97 -920.694 568.048 -925.624C580.126 -930.554 593.064 -933.074 606.123 -933.04Z" fill="url(#paint2_linear)"/>
<path d="M819.381 906.539H1099.82C1101.31 906.539 1102.73 907.126 1103.79 908.17C1104.84 909.214 1105.43 910.63 1105.43 912.107C1105.43 913.583 1104.84 914.999 1103.79 916.043C1102.73 917.088 1101.31 917.674 1099.82 917.674H819.381C817.894 917.674 816.468 917.088 815.416 916.043C814.364 914.999 813.773 913.583 813.773 912.107C813.773 910.63 814.364 909.214 815.416 908.17C816.468 907.126 817.894 906.539 819.381 906.539V906.539Z" fill="#363636"/>
</g>
<defs>
<filter id="filter0_d" x="354.648" y="-1084.65" width="1207.66" height="2173.98" filterUnits="userSpaceOnUse" color-interpolation-filters="sRGB">
<feFlood flood-opacity="0" result="BackgroundImageFix"/>
<feColorMatrix in="SourceAlpha" type="matrix" values="0 0 0 0 0 0 0 0 0 0 0 0 0 0 0 0 0 0 127 0"/>
<feOffset/>
<feGaussianBlur stdDeviation="64.669"/>
<feColorMatrix type="matrix" values="0 0 0 0 0 0 0 0 0 0 0 0 0 0 0 0 0 0 0.22 0"/>
<feBlend mode="normal" in2="BackgroundImageFix" result="effect1_dropShadow"/>
<feBlend mode="normal" in="SourceGraphic" in2="effect1_dropShadow" result="shape"/>
</filter>
<linearGradient id="paint0_linear" x1="958.476" y1="-955.308" x2="958.476" y2="960" gradientUnits="userSpaceOnUse">
<stop stop-color="#008AFC"/>
<stop offset="0.0001" stop-color="#313131"/>
</linearGradient>
<linearGradient id="paint1_linear" x1="958.47" y1="-937.488" x2="958.47" y2="942.189" gradientUnits="userSpaceOnUse">
<stop stop-color="#141414"/>
<stop offset="1" stop-color="#1C1C1C"/>
</linearGradient>
<linearGradient id="paint2_linear" x1="958.477" y1="-933.04" x2="958.477" y2="937.721" gradientUnits="userSpaceOnUse">
<stop stop-color="#1C1C1C"/>
<stop offset="1" stop-color="#0D0D0D"/>
</linearGradient>
</defs>
</svg>
