<svg width="949" height="1916" viewBox="0 0 949 1916" fill="none" xmlns="http://www.w3.org/2000/svg">
<path d="M127.876 0H821.104C855.019 0 887.545 13.3744 911.526 37.1811C935.508 60.9877 948.98 93.2765 948.98 126.944V1788.36C948.98 1805.03 945.673 1821.54 939.246 1836.94C932.82 1852.35 923.401 1866.34 911.526 1878.13C899.652 1889.92 885.555 1899.27 870.04 1905.65C854.526 1912.02 837.897 1915.31 821.104 1915.31H127.876C111.083 1915.31 94.4547 1912.02 78.9401 1905.65C63.4254 1899.27 49.3285 1889.92 37.4541 1878.13C25.5797 1866.34 16.1604 1852.35 9.73399 1836.94C3.30761 1821.54 0 1805.03 0 1788.36L0 126.944C0 93.2765 13.4726 60.9877 37.4541 37.1811C61.4355 13.3744 93.9613 0 127.876 0Z" fill="url(#paint0_linear)"/>
<path d="M123.359 25.0003H825.641C851.924 24.9327 877.157 35.2361 895.791 53.6442C914.424 72.0522 924.931 97.057 925 123.158V1791.84C924.931 1817.94 914.424 1842.95 895.791 1861.36C877.157 1879.76 851.924 1890.07 825.641 1890H123.359C110.345 1890.03 97.4517 1887.52 85.4152 1882.61C73.3788 1877.69 62.4349 1870.47 53.2086 1861.36C43.9822 1852.24 36.654 1841.41 31.6424 1829.48C26.6308 1817.56 24.0339 1804.77 24 1791.84L24 123.158C24.0339 110.234 26.6308 97.4433 31.6424 85.516C36.654 73.5887 43.9822 62.7584 53.2086 53.6436C62.4349 44.5288 73.3788 37.308 85.4152 32.3934C97.4517 27.4787 110.345 24.9666 123.359 25.0003Z" fill="url(#paint1_linear)"/>
<path d="M335.396 1853H615.834C617.321 1853 618.748 1853.59 619.799 1854.63C620.851 1855.67 621.442 1857.09 621.442 1858.57C621.442 1860.04 620.851 1861.46 619.799 1862.5C618.748 1863.55 617.321 1864.14 615.834 1864.14H335.396C333.908 1864.14 332.482 1863.55 331.43 1862.5C330.378 1861.46 329.787 1860.04 329.787 1858.57C329.787 1857.09 330.378 1855.67 331.43 1854.63C332.482 1853.59 333.908 1853 335.396 1853V1853Z" fill="#363636"/>
<defs>
<linearGradient id="paint0_linear" x1="474.49" y1="0" x2="474.49" y2="1915.31" gradientUnits="userSpaceOnUse">
<stop stop-color="#008AFC"/>
<stop offset="0.0001" stop-color="#313131"/>
</linearGradient>
<linearGradient id="paint1_linear" x1="474.5" y1="25" x2="474.5" y2="1890" gradientUnits="userSpaceOnUse">
<stop stop-color="#1C1C1C"/>
<stop offset="1" stop-color="#0D0D0D"/>
</linearGradient>
</defs>
</svg>
