<svg width="950" height="958" viewBox="0 0 950 958" fill="none" xmlns="http://www.w3.org/2000/svg">
<path d="M0 0H950V762.8C950 831.126 950 865.29 936.703 891.387C925.006 914.343 906.343 933.006 883.387 944.703C857.29 958 823.126 958 754.8 958H195.2C126.874 958 92.7104 958 66.6132 944.703C43.6574 933.006 24.9938 914.343 13.2972 891.387C0 865.29 0 831.126 0 762.8V0Z" fill="#313131"/>
<path d="M21 0H929V757.8C929 820.526 929 851.889 916.793 875.847C906.055 896.921 888.921 914.055 867.847 924.793C843.889 937 812.526 937 749.8 937H200.2C137.474 937 106.111 937 82.1531 924.793C61.0789 914.055 43.9451 896.921 33.2073 875.847C21 851.889 21 820.526 21 757.8V0Z" fill="#111111"/>
<path d="M334.608 892H615.046C616.534 892 617.96 892.587 619.012 893.631C620.064 894.675 620.655 896.091 620.655 897.568C620.655 899.044 620.064 900.46 619.012 901.504C617.96 902.549 616.534 903.135 615.046 903.135H334.608C333.121 903.135 331.694 902.549 330.643 901.504C329.591 900.46 329 899.044 329 897.568C329 896.091 329.591 894.675 330.643 893.631C331.694 892.587 333.121 892 334.608 892V892Z" fill="#363636"/>
</svg>
