<svg xmlns="http://www.w3.org/2000/svg" width="64" height="64" fill="none" viewBox="0 0 64 64">
    <rect width="64" height="64" fill="#fff" opacity=".1" rx="20"/>
    <path fill="#B68CFB" d="M44 47h-3v-3c0-1.194-.474-2.338-1.318-3.182-.844-.844-1.989-1.318-3.182-1.318h-9c-1.194 0-2.338.474-3.182 1.318C23.474 41.662 23 42.807 23 44v3h-3v-3c0-1.99.79-3.897 2.197-5.303C23.603 37.29 25.51 36.5 27.5 36.5h9c1.99 0 3.897.79 5.303 2.197C43.21 40.103 44 42.01 44 44v3zM32 33.5c-1.182 0-2.352-.233-3.444-.685-1.092-.452-2.084-1.115-2.92-1.951-.836-.836-1.499-1.828-1.95-2.92C23.232 26.852 23 25.682 23 24.5s.233-2.352.685-3.444c.452-1.092 1.115-2.084 1.951-2.92.836-.836 1.828-1.499 2.92-1.95 1.092-.453 2.262-.686 3.444-.686 2.387 0 4.676.948 6.364 2.636C40.052 19.824 41 22.113 41 24.5s-.948 4.676-2.636 6.364C36.676 32.552 34.387 33.5 32 33.5zm0-3c1.591 0 3.117-.632 4.243-1.757C37.368 27.617 38 26.09 38 24.5c0-1.591-.632-3.117-1.757-4.243C35.117 19.132 33.59 18.5 32 18.5c-1.591 0-3.117.632-4.243 1.757C26.632 21.383 26 22.91 26 24.5c0 1.591.632 3.117 1.757 4.243C28.883 29.868 30.41 30.5 32 30.5z"/>
</svg>
