<svg xmlns="http://www.w3.org/2000/svg" width="353" height="353" fill="none" viewBox="0 0 353 353">
    <g stroke="#B68CFB" stroke-linecap="round" stroke-linejoin="round" stroke-miterlimit="10" stroke-width="7.904" opacity=".1">
        <path d="M176.496 344.29c92.736 0 167.914-75.177 167.914-167.913 0-92.737-75.178-167.914-167.914-167.914C83.76 8.463 8.582 83.64 8.582 176.377c0 92.736 75.178 167.913 167.914 167.913z"/>
        <path d="M229.204 294.296c65.057-29.107 94.2-105.443 65.092-170.5-29.107-65.057-105.443-94.2-170.5-65.092-65.057 29.107-94.2 105.443-65.092 170.5 29.107 65.057 105.443 94.2 170.5 65.092z"/>
        <path d="M265.514 196.457c11.12-49.259-19.799-98.205-69.057-109.324-49.259-11.12-98.205 19.799-109.324 69.058-11.12 49.258 19.799 98.204 69.058 109.323 49.258 11.12 98.204-19.799 109.323-69.057z"/>
        <path d="M176.497 229.69c29.444 0 53.314-23.869 53.314-53.313 0-29.445-23.87-53.314-53.314-53.314-29.445 0-53.314 23.869-53.314 53.314 0 29.444 23.869 53.313 53.314 53.313z"/>
    </g>
</svg>
