<svg xmlns="http://www.w3.org/2000/svg" width="395" height="594" fill="none" viewBox="0 0 395 594">
    <path stroke="#F7C97E" stroke-width="10" d="M594.141 256.597c-9.177-12.855-20.189-27.547-25.695-44.075-5.506-16.528-5.506-36.73-5.506-53.258 0-15.564 0-29.809-4.469-38.263-1.528-2.891-3.61-5.516-5.965-7.785-7.251-6.987-21.35-11.69-35.449-16.392-14.683-5.51-33.036-11.019-47.719-22.038-14.682-11.019-25.694-25.71-34.871-38.566-9.02-12.035-16.809-22.837-25.385-28.37C405.468 5.518 401.075 5 396.773 5h-.848c-9.177 0-22.024 3.673-34.871 7.346-14.683 5.51-33.036 11.019-51.389 11.019-18.354 0-36.707-5.51-53.225-11.02C243.593 8.674 232.581 5 221.569 5v0c-5.055 0-10.205 2.214-14.18 5.337-6.991 5.493-14.239 16.208-22.527 25.883-11.012 12.855-22.024 27.547-34.871 38.566-14.683 11.019-33.036 16.528-47.719 22.038-14.099 4.702-28.197 9.405-35.449 16.392-2.354 2.269-4.437 4.894-5.965 7.785-4.469 8.454-4.469 22.699-4.469 38.263 0 16.528 0 34.893-5.506 51.422-5.506 16.528-16.518 31.22-25.694 44.075C16.012 269.453 5 284.145 5 295.164c0 11.018 11.012 25.71 20.189 40.402 9.176 12.855 20.188 27.547 25.694 44.076 5.506 16.528 5.506 36.729 5.506 53.257 0 15.564 0 29.81 4.469 38.264 1.528 2.891 3.61 5.516 5.965 7.785 7.252 6.986 21.35 11.689 35.449 16.392 14.683 5.509 33.036 11.018 47.719 22.037 14.683 11.019 25.695 25.711 34.871 38.566 9.021 12.035 16.81 22.838 25.385 28.37 3.615 2.333 7.752 4.168 12.029 4.627.356.039.731.06 1.128.06 9.177 0 22.024-3.673 34.871-7.346 16.518-5.509 34.872-11.019 53.225-11.019s36.707 5.51 53.225 11.019c12.847 3.673 25.694 7.346 34.871 7.346v0c5.098 0 10.023-2.467 14.201-5.389 8.168-5.712 15.688-16.123 24.341-27.668 9.176-12.855 20.188-27.547 34.871-38.566 14.683-11.019 31.201-16.528 47.719-22.037 16.517-5.51 33.035-11.019 38.541-20.202 5.506-9.182 5.506-25.71 7.342-42.239 0-16.528 0-34.893 5.506-53.257 5.506-16.529 16.518-31.221 25.694-44.076 7.653-12.252 16.582-23.227 19.337-33.99 1.065-4.162.242-8.531-1.645-12.391-4.905-10.036-13.763-21.942-21.362-32.588z"/>
</svg>
