<svg xmlns="http://www.w3.org/2000/svg" width="78" height="48" fill="none" viewBox="0 0 78 48">
    <path fill="#9555FF" d="M0 0h54c13.255 0 24 10.745 24 24S67.255 48 54 48H24.254C10.86 48 0 37.14 0 23.746V0z"/>
    <path fill="#fff" d="M20.35 35h3.66v-8.85l7.35-12.75h-4.23l-4.95 8.61-4.95-8.61H13l7.35 12.75V35zm16.887.45c4.83 0 8.07-3.51 8.07-8.55 0-5.01-3.21-8.55-8.07-8.55-4.8 0-8.07 3.48-8.07 8.55 0 5.01 3.18 8.55 8.07 8.55zm0-3.39c-2.79 0-4.23-2.01-4.23-5.16 0-3.06 1.32-5.16 4.23-5.16 2.82 0 4.26 2.01 4.26 5.16 0 3.03-1.41 5.16-4.26 5.16zM58.532 18.8v8.31c0 3.93-1.95 4.95-3.78 4.95-3.45 0-3.78-3.45-3.78-5.46v-7.8h-3.66v9.03c0 1.95.42 7.62 6.36 7.62 2.34 0 4.14-.84 5.31-2.25V35h3.21V18.8h-3.66z"/>
</svg>
