<svg xmlns="http://www.w3.org/2000/svg" width="47" height="56" fill="none" viewBox="0 0 47 56">
    <g clip-path="url(#clip0)">
        <path stroke="#009377" stroke-miterlimit="22.926" stroke-width="1.5" d="M15.728 24.75H.185v15.532h15.543V24.75z"/>
        <path fill="#009377" fill-rule="evenodd" stroke="#009377" stroke-miterlimit="22.926" d="M15.759 24.888l3.847 7.697 3.85 7.697H8.063l3.848-7.697 3.847-7.697z" clip-rule="evenodd"/>
        <path stroke="#009377" stroke-miterlimit="22.926" stroke-width="1.5" d="M46.815 24.75H31.272v15.532h15.543V24.75z"/>
        <path fill="#009377" fill-rule="evenodd" stroke="#009377" stroke-miterlimit="22.926" d="M31.241 24.888l-3.847 7.697-3.849 7.697h15.39l-3.849-7.697-3.845-7.697z" clip-rule="evenodd"/>
        <path stroke="#009377" stroke-miterlimit="22.926" stroke-width="1.5" d="M15.728 40.282H.185v15.533h15.543V40.283z"/>
        <path fill="#009377" fill-rule="evenodd" stroke="#009377" stroke-miterlimit="22.926" d="M7.957 40.42l3.847 7.698 3.85 7.697H.262l3.849-7.697 3.845-7.697z" clip-rule="evenodd"/>
        <path stroke="#009377" stroke-miterlimit="22.926" stroke-width="1.5" d="M31.272 40.282H15.728v15.533h15.544V40.283z"/>
        <path fill="#009377" fill-rule="evenodd" stroke="#009377" stroke-miterlimit="22.926" d="M23.5 40.42l3.848 7.698 3.848 7.697h-15.39l3.849-7.697 3.845-7.697z" clip-rule="evenodd"/>
        <path stroke="#009377" stroke-miterlimit="22.926" stroke-width="1.5" d="M46.815 40.282H31.272v15.533h15.543V40.283z"/>
        <path fill="#009377" fill-rule="evenodd" stroke="#009377" stroke-miterlimit="22.926" d="M39.043 40.42l3.848 7.698 3.849 7.697H31.35l3.848-7.697 3.845-7.697z" clip-rule="evenodd"/>
        <path stroke="#009377" stroke-miterlimit="22.926" stroke-width="1.5" d="M15.728 9.216H.185v15.533h15.543V9.216zM31.272 9.216H15.728v15.533h15.544V9.216z"/>
        <path fill="#009377" fill-rule="evenodd" stroke="#009377" stroke-miterlimit="22.926" stroke-width="1.5" d="M23.5 9.354l3.848 7.697 3.848 7.698h-15.39l3.849-7.698L23.5 9.354z" clip-rule="evenodd"/>
        <path stroke="#009377" stroke-miterlimit="22.926" stroke-width="1.5" d="M46.815 9.216H31.272v15.533h15.543V9.216z"/>
        <path fill="#009377" d="M5.163 4.887h3.153L6.834 1.66 5.163 4.887zm-3.31 3.338v-.573c.302-.034.59-.14.843-.309.27-.22.488-.496.642-.808L6.866 0H8.73l3.434 6.666c.13.286.332.533.587.717.28.155.592.247.913.269v.573H8.03v-.573c.353 0 .705-.048 1.045-.143.08-.02.154-.065.206-.13.053-.064.083-.144.086-.228-.017-.123-.054-.242-.11-.353-.006-.012-.011-.025-.015-.038l-.576-1.3h-3.79l-.474 1.024-.016.039c-.101.176-.167.37-.194.572 0 .08.025.16.072.226.047.066.114.116.19.142.312.11.637.173.966.189v.573H1.853z"/>
        <path fill="#009377" d="M16.307.562h-.148v6.142c0 .381.09.628.273.74.183.111.605.178 1.273.208v.574H13.65v-.574c.668-.03 1.092-.1 1.27-.209.178-.109.268-.357.268-.74V1.522c0-.381-.09-.628-.268-.74-.178-.111-.602-.178-1.27-.208v-.574h5.057l2.55 5.53L23.64 0h5.106v.574c-.674.03-1.1.098-1.281.212-.18.114-.273.358-.273.736v5.182c0 .378.093.624.276.735.183.111.61.183 1.278.213v.573H22.88v-.573c.669-.03 1.093-.1 1.27-.209.178-.109.269-.357.269-.74V.561h-.125l-3.294 7.663h-1.164L16.307.562zM33.836 6.704c0 .368.093.607.278.722.186.114.605.188 1.252.226v.573h-5.773v-.573c.575-.038.948-.114 1.116-.226.167-.115.252-.354.252-.722V1.52c0-.366-.085-.607-.252-.722-.167-.114-.54-.188-1.116-.226V0H40.17l.225 2.766h-.878c-.074-.348-.223-.677-.435-.963-.212-.287-.483-.524-.795-.697-.637-.356-1.53-.533-2.68-.533-.728 0-1.208.057-1.434.168-.226.11-.337.372-.337.78v2.15h.651c.674 0 1.181-.13 1.52-.392.182-.155.33-.345.436-.559.107-.214.168-.447.182-.685h.793V5.9h-.793c-.014-.239-.075-.472-.182-.686-.106-.214-.254-.404-.436-.56-.34-.26-.846-.39-1.52-.39h-.651v2.439zM42.384 1.521c0-.366-.085-.607-.252-.722-.167-.114-.541-.188-1.117-.226V0h5.596v.573c-.564.035-.93.106-1.1.219-.17.112-.252.355-.252.73v5.182c0 .374.085.618.252.73.167.11.536.184 1.1.218v.573h-5.596v-.573c.576-.038.948-.114 1.117-.226.167-.115.252-.356.252-.722V1.52z"/>
        <path stroke="#009377" stroke-miterlimit="22.926" stroke-width="1.5" d="M15.728 24.75H.185v15.532h15.543V24.75z"/>
        <path fill="#009377" fill-rule="evenodd" stroke="#009377" stroke-miterlimit="22.926" d="M15.759 24.888l3.847 7.697 3.85 7.697H8.063l3.848-7.697 3.847-7.697z" clip-rule="evenodd"/>
        <path stroke="#009377" stroke-miterlimit="22.926" stroke-width="1.5" d="M46.815 24.75H31.272v15.532h15.543V24.75z"/>
        <path fill="#009377" fill-rule="evenodd" stroke="#009377" stroke-miterlimit="22.926" d="M31.241 24.888l-3.847 7.697-3.849 7.697h15.39l-3.849-7.697-3.845-7.697z" clip-rule="evenodd"/>
        <path stroke="#009377" stroke-miterlimit="22.926" stroke-width="1.5" d="M15.728 40.282H.185v15.533h15.543V40.283z"/>
        <path fill="#009377" fill-rule="evenodd" stroke="#009377" stroke-miterlimit="22.926" d="M7.957 40.42l3.847 7.698 3.85 7.697H.262l3.849-7.697 3.845-7.697z" clip-rule="evenodd"/>
        <path stroke="#009377" stroke-miterlimit="22.926" stroke-width="1.5" d="M31.272 40.282H15.728v15.533h15.544V40.283z"/>
        <path fill="#009377" fill-rule="evenodd" stroke="#009377" stroke-miterlimit="22.926" d="M23.5 40.42l3.848 7.698 3.848 7.697h-15.39l3.849-7.697 3.845-7.697z" clip-rule="evenodd"/>
        <path stroke="#009377" stroke-miterlimit="22.926" stroke-width="1.5" d="M46.815 40.282H31.272v15.533h15.543V40.283z"/>
        <path fill="#009377" fill-rule="evenodd" stroke="#009377" stroke-miterlimit="22.926" d="M39.043 40.42l3.848 7.698 3.849 7.697H31.35l3.848-7.697 3.845-7.697z" clip-rule="evenodd"/>
        <path stroke="#009377" stroke-miterlimit="22.926" stroke-width="1.5" d="M15.728 9.216H.185v15.533h15.543V9.216zM31.272 9.216H15.728v15.533h15.544V9.216z"/>
        <path fill="#009377" fill-rule="evenodd" stroke="#009377" stroke-miterlimit="22.926" stroke-width="1.5" d="M23.5 9.354l3.848 7.697 3.848 7.698h-15.39l3.849-7.698L23.5 9.354z" clip-rule="evenodd"/>
        <path stroke="#009377" stroke-miterlimit="22.926" stroke-width="1.5" d="M46.815 9.216H31.272v15.533h15.543V9.216z"/>
        <path fill="#009377" d="M5.163 4.887h3.153L6.834 1.66 5.163 4.887zm-3.31 3.338v-.573c.302-.034.59-.14.843-.309.27-.22.488-.496.642-.808L6.866 0H8.73l3.434 6.666c.13.286.332.533.587.717.28.155.592.247.913.269v.573H8.03v-.573c.353 0 .705-.048 1.045-.143.08-.02.154-.065.206-.13.053-.064.083-.144.086-.228-.017-.123-.054-.242-.11-.353-.006-.012-.011-.025-.015-.038l-.576-1.3h-3.79l-.474 1.024-.016.039c-.101.176-.167.37-.194.572 0 .08.025.16.072.226.047.066.114.116.19.142.312.11.637.173.966.189v.573H1.853z"/>
        <path fill="#009377" d="M16.307.562h-.148v6.142c0 .381.09.628.273.74.183.111.605.178 1.273.208v.574H13.65v-.574c.668-.03 1.092-.1 1.27-.209.178-.109.268-.357.268-.74V1.522c0-.381-.09-.628-.268-.74-.178-.111-.602-.178-1.27-.208v-.574h5.057l2.55 5.53L23.64 0h5.106v.574c-.674.03-1.1.098-1.281.212-.18.114-.273.358-.273.736v5.182c0 .378.093.624.276.735.183.111.61.183 1.278.213v.573H22.88v-.573c.669-.03 1.093-.1 1.27-.209.178-.109.269-.357.269-.74V.561h-.125l-3.294 7.663h-1.164L16.307.562zM33.836 6.704c0 .368.093.607.278.722.186.114.605.188 1.252.226v.573h-5.773v-.573c.575-.038.948-.114 1.116-.226.167-.115.252-.354.252-.722V1.52c0-.366-.085-.607-.252-.722-.167-.114-.54-.188-1.116-.226V0H40.17l.225 2.766h-.878c-.074-.348-.223-.677-.435-.963-.212-.287-.483-.524-.795-.697-.637-.356-1.53-.533-2.68-.533-.728 0-1.208.057-1.434.168-.226.11-.337.372-.337.78v2.15h.651c.674 0 1.181-.13 1.52-.392.182-.155.33-.345.436-.559.107-.214.168-.447.182-.685h.793V5.9h-.793c-.014-.239-.075-.472-.182-.686-.106-.214-.254-.404-.436-.56-.34-.26-.846-.39-1.52-.39h-.651v2.439zM42.384 1.521c0-.366-.085-.607-.252-.722-.167-.114-.541-.188-1.117-.226V0h5.596v.573c-.564.035-.93.106-1.1.219-.17.112-.252.355-.252.73v5.182c0 .374.085.618.252.73.167.11.536.184 1.1.218v.573h-5.596v-.573c.576-.038.948-.114 1.117-.226.167-.115.252-.356.252-.722V1.52z"/>
    </g>
    <defs>
        <clipPath id="clip0">
            <path fill="#fff" d="M0 0H47V56H0z"/>
        </clipPath>
    </defs>
</svg>
