<svg xmlns="http://www.w3.org/2000/svg" width="161" height="193" fill="none" viewBox="0 0 161 193">
    <g opacity=".2">
        <path stroke="#fff" stroke-miterlimit="10" stroke-width="3.549" d="M28.276 14.08c0 6.645-5.436 12.081-12.08 12.081-6.645 0-12.081-5.436-12.081-12.08C4.115 7.436 9.55 2 16.195 2c6.645 0 12.081 5.436 12.081 12.08zM83.846 14.08c0 6.645-5.437 12.081-12.081 12.081-6.645 0-12.08-5.436-12.08-12.08C59.684 7.436 65.12 2 71.764 2c6.644 0 12.08 5.436 12.08 12.08zM139.117 14.08c0 6.645-5.436 12.081-12.081 12.081-6.644 0-12.08-5.436-12.08-12.08 0-6.645 5.436-12.081 12.08-12.081 6.645 0 12.081 5.436 12.081 12.08zM27.672 69.049c0 6.644-5.437 12.08-12.081 12.08-6.645 0-12.08-5.436-12.08-12.08 0-6.645 5.435-12.081 12.08-12.081 6.644 0 12.08 5.436 12.08 12.08zM82.94 69.049c0 6.644-5.436 12.08-12.08 12.08-6.645 0-12.081-5.436-12.081-12.08 0-6.645 5.436-12.081 12.08-12.081 6.645 0 12.081 5.436 12.081 12.08zM138.512 69.049c0 6.644-5.436 12.08-12.08 12.08-6.645 0-12.081-5.436-12.081-12.08 0-6.645 5.436-12.081 12.081-12.081 6.644 0 12.08 5.436 12.08 12.08zM27.067 123.712c0 6.645-5.436 12.081-12.08 12.081-6.645 0-12.082-5.436-12.082-12.081 0-6.644 5.437-12.08 12.081-12.08 6.645 0 12.08 5.436 12.08 12.08zM82.335 123.712c0 6.645-5.436 12.081-12.08 12.081-6.645 0-12.081-5.436-12.081-12.081 0-6.644 5.436-12.08 12.08-12.08 6.645 0 12.081 5.436 12.081 12.08zM137.908 123.712c0 6.645-5.437 12.081-12.081 12.081-6.644 0-12.081-5.436-12.081-12.081 0-6.644 5.437-12.08 12.081-12.08 6.644 0 12.081 5.436 12.081 12.08zM26.161 178.68c0 6.645-5.436 12.081-12.08 12.081C7.436 190.761 2 185.325 2 178.68c0-6.644 5.436-12.08 12.08-12.08 6.645-.302 12.081 5.134 12.081 12.08zM81.734 178.68c0 6.644-5.437 12.081-12.08 12.081-6.645 0-12.082-5.437-12.082-12.081 0-6.644 5.437-12.081 12.081-12.081 6.644 0 12.08 5.135 12.08 12.081zM137.303 178.68c0 6.645-5.436 12.081-12.081 12.081-6.644 0-12.08-5.436-12.08-12.081 0-6.644 5.436-12.08 12.08-12.08 6.645-.302 12.081 5.134 12.081 12.08z"/>
    </g>
</svg>
