<svg xmlns="http://www.w3.org/2000/svg" width="151" height="189" fill="none" viewBox="0 0 151 189">
    <g opacity=".2">
        <path fill="#fff" d="M39.846 12.093c0 6.644-5.437 12.08-12.081 12.08-6.645 0-12.08-5.436-12.08-12.08 0-6.645 5.435-12.081 12.08-12.081 6.644-.302 12.08 5.134 12.08 12.08zM95.117 12.093c0 6.644-5.436 12.08-12.08 12.08-6.645 0-12.081-5.436-12.081-12.08 0-6.645 5.436-12.081 12.08-12.081 6.645-.302 12.081 5.134 12.081 12.08zM150.687 12.092c0 6.645-5.437 12.081-12.081 12.081-6.645 0-12.081-5.436-12.081-12.08 0-6.645 5.436-12.081 12.081-12.081 6.644 0 12.081 5.134 12.081 12.08zM38.94 66.757c0 6.644-5.436 12.08-12.08 12.08-6.645 0-12.081-5.436-12.081-12.08 0-6.645 5.436-12.081 12.08-12.081 6.645 0 12.081 5.436 12.081 12.08zM94.513 66.757c0 6.644-5.437 12.08-12.081 12.08-6.645 0-12.08-5.436-12.08-12.08 0-6.645 5.435-12.081 12.08-12.081 6.644 0 12.08 5.436 12.08 12.08zM150.082 66.757c0 6.644-5.437 12.08-12.081 12.08-6.644 0-12.081-5.436-12.081-12.08 0-6.645 5.437-12.081 12.081-12.081 6.644 0 12.081 5.436 12.081 12.08zM38.336 121.724c0 6.645-5.437 12.081-12.081 12.081-6.645 0-12.08-5.436-12.08-12.081 0-6.644 5.435-12.08 12.08-12.08 6.644-.302 12.08 5.134 12.08 12.08zM93.908 121.724c0 6.645-5.436 12.081-12.08 12.081-6.645 0-12.082-5.436-12.082-12.081 0-6.644 5.437-12.08 12.081-12.08 6.645 0 12.08 5.134 12.08 12.08zM149.176 121.724c0 6.645-5.436 12.081-12.08 12.081-6.645 0-12.081-5.436-12.081-12.081 0-6.644 5.436-12.08 12.081-12.08 6.644 0 12.08 5.134 12.08 12.08zM37.734 176.391c0 6.644-5.437 12.081-12.08 12.081-6.645 0-12.082-5.437-12.082-12.081 0-6.644 5.437-12.081 12.081-12.081 6.645 0 12.08 5.437 12.08 12.081zM93.303 176.391c0 6.644-5.436 12.081-12.08 12.081-6.645 0-12.081-5.437-12.081-12.081 0-6.644 5.436-12.081 12.08-12.081 6.645 0 12.081 5.437 12.081 12.081zM148.572 176.391c0 6.644-5.437 12.081-12.081 12.081-6.644 0-12.081-5.437-12.081-12.081 0-6.644 5.437-12.081 12.081-12.081 6.644 0 12.081 5.437 12.081 12.081z"/>
    </g>
</svg>
