<svg xmlns="http://www.w3.org/2000/svg" width="32" height="32" fill="none" viewBox="0 0 32 32">
    <path fill="#fff" d="M16 0C7.163 0 0 7.164 0 16s7.163 16 16 16c8.836 0 16-7.164 16-16S24.836 0 16 0zm0 5.62l9.468 5.904H6.532L16 5.62zm9.586 15.332c0 .947-.768 1.714-1.715 1.714H8.129c-.947 0-1.714-.767-1.714-1.714V11.9c0-.1.01-.198.027-.294l9.046 5.641c.011.007.023.012.034.018l.037.02c.063.032.13.059.197.076l.02.005c.074.017.149.028.224.028h.001c.075 0 .15-.01.223-.028l.021-.005c.067-.017.133-.044.197-.077l.037-.019c.01-.006.023-.01.034-.018l9.046-5.64c.017.095.027.192.027.293v9.052z"/>
</svg>
